<svg width="5" height="5" viewBox="0 0 5 5" fill="none" xmlns="http://www.w3.org/2000/svg">
<path d="M2.5 5.00011C2.04167 5.00011 1.62311 4.88837 1.24432 4.66488C0.86553 4.43761 0.5625 4.13458 0.335227 3.75579C0.111742 3.377 0 2.95844 0 2.50011C0 2.03799 0.111742 1.61943 0.335227 1.24443C0.5625 0.865641 0.86553 0.564505 1.24432 0.34102C1.62311 0.113747 2.04167 0.000110626 2.5 0.000110626C2.96212 0.000110626 3.38068 0.113747 3.75568 0.34102C4.13447 0.564505 4.43561 0.865641 4.65909 1.24443C4.88636 1.61943 5 2.03799 5 2.50011C5 2.95844 4.88636 3.377 4.65909 3.75579C4.43561 4.13458 4.13447 4.43761 3.75568 4.66488C3.38068 4.88837 2.96212 5.00011 2.5 5.00011Z" fill="#7148EC"/>
</svg>
